#!OML:ASF I:\Actors\actors\Patient Classification 2\Patient 1\Session 1\actor1.ASF
:FULLY-SPECIFIED
:DEGREES
528
root -0.243847 18.6117 4.13919 20.5171 11.2628 -2.69007
lowerback 31.9142 1.4549 -1.49232
upperback 5.64957 1.38388 -0.138523
thorax -10.2775 0.697308 0.138445
lowerneck -1.04206 -1.31099 -4.57968
upperneck -2.57274 -1.61475 6.44702
head -0.533875 -0.806815 2.84981
rclavicle 3.598e-014 -4.57205e-015
rhumerus 7.28485 18.9584 -65.5258
rradius 146.505
rwrist -19.3921
rhand 7.86418 -54.3225
rfingers 7.12502
rthumb 33.0979 -81.302
lclavicle 3.598e-014 -4.57205e-015
lhumerus 6.03409 -31.9183 60.7921
lradius 142.397
lwrist 13.5543
lhand -10.4261 -28.3457
lfingers 7.12502
lthumb 15.5732 1.04732
rfemur -25.9668 -6.493 16.7482
rtibia 16.4011
rfoot -20.0778 -12.7641
rtoes -12.0789
lfemur -42.9508 -4.27326 -10.4203
ltibia 35.2685
lfoot -14.0704 5.48698
ltoes -55.4632
529
root -0.247841 18.6152 4.14648 20.6324 11.1606 -2.58039
lowerback 31.8294 1.49684 -1.55376
upperback 5.62417 1.41376 -0.16924
thorax -10.272 0.712518 0.128934
lowerneck -1.12585 -1.13992 -4.5735
upperneck -2.54765 -1.38444 6.36279
head -0.525712 -0.689327 2.81978
rclavicle 1.47101e-014 -1.64991e-014
rhumerus 7.0745 19.2584 -65.3746
rradius 146.689
rwrist -19.577
rhand 7.72384 -54.7985
rfingers 7.12502
rthumb 32.9644 -81.8062
lclavicle 1.47101e-014 -1.64991e-014
lhumerus 6.24729 -31.3455 60.9155
lradius 142.457
lwrist 13.8699
lhand -10.7783 -28.3235
lfingers 7.12502
lthumb 15.234 1.09562
rfemur -26.0795 -6.43068 16.6316
rtibia 16.4283
rfoot -20.0963 -12.7805
rtoes -11.8755
lfemur -42.9552 -4.21417 -10.5425
ltibia 35.1581
lfoot -14.0393 5.51092
ltoes -55.5114
530
root -0.250816 18.62 4.15297 20.7593 11.0832 -2.45087
lowerback 31.6965 1.52398 -1.66257
upperback 5.61704 1.41335 -0.183071
thorax -10.2273 0.71528 0.17508
lowerneck -1.13439 -0.911334 -4.44039
upperneck -2.55874 -1.08214 6.08385
head -0.54739 -0.537221 2.7014
rclavicle 3.18055e-015 -5.56597e-015
rhumerus 6.75026 19.4285 -65.3981
rradius 146.872
rwrist -19.8105
rhand 11.3938 -56.1279
rfingers 7.12502
rthumb 36.4471 -82.3334
lclavicle 3.18055e-015 -5.56597e-015
lhumerus 6.50221 -30.8054 60.9532
lradius 142.537
lwrist 13.83
lhand -11.4632 -28.3515
lfingers 7.12502
lthumb 14.5742 1.11646
rfemur -26.1795 -6.40399 16.502
rtibia 16.4217
rfoot -20.0771 -12.8264
rtoes -11.9948
lfemur -42.9798 -4.18518 -10.6791
ltibia 35.0496
lfoot -14.0078 5.54817
ltoes -55.536
531
root -0.254076 18.6244 4.15842 20.8286 11.0241 -2.37959
lowerback 31.4136 1.55605 -1.74536
upperback 6.04186 1.4385 -0.172869
thorax -10.422 0.729267 0.250551
lowerneck -1.07835 -0.734423 -4.29972
upperneck -2.56745 -0.85404 5.68621
head -0.574298 -0.422699 2.54254
rclavicle 3.08116e-014 -3.45885e-014
rhumerus 6.39463 19.3299 -65.4676
rradius 147.013
rwrist -20.1265
rhand 13.4927 -55.5713
rfingers 7.12502
rthumb 38.431 -81.2519
lclavicle 3.08116e-014 -3.45885e-014
lhumerus 6.79172 -30.4801 60.8733
lradius 142.644
lwrist 13.4231
lhand -12.3224 -28.4664
lfingers 7.12502
lthumb 13.7463 1.05954
rfemur -26.2212 -6.35415 16.4262
rtibia 16.397
rfoot -20.0619 -12.8785
rtoes -12.2209
lfemur -42.9618 -4.22918 -10.7236
ltibia 34.949
lfoot -14.0032 5.65078
ltoes -55.5139
532
root -0.258516 18.6287 4.16465 20.7967 10.957 -2.37842
lowerback 31.431 1.551 -1.72046
upperback 6.07563 1.43814 -0.186248
thorax -10.3903 0.727867 0.221184
lowerneck -1.13543 -0.626526 -4.46127
upperneck -2.47912 -0.710026 5.66356
head -0.544141 -0.347748 2.56417
rclavicle 2.38542e-014 3.37934e-015
rhumerus 6.20518 18.9991 -65.5783
rradius 147.178
rwrist -20.3883
rhand 16.773 -54.8462
rfingers 7.12502
rthumb 41.5179 -79.5958
lclavicle 2.38542e-014 3.37934e-015
lhumerus 7.10538 -30.2309 60.5978
lradius 142.758
lwrist 13.1876
lhand -12.7407 -28.5081
lfingers 7.12502
lthumb 13.3431 1.04471
rfemur -26.1543 -6.26215 16.414
rtibia 16.349
rfoot -20.0402 -12.9311
rtoes -12.4699
lfemur -42.8381 -4.29406 -10.6842
ltibia 34.8599
lfoot -14.0285 5.78319
ltoes -55.4765
533
root -0.26203 18.6311 4.17012 20.7932 10.9328 -2.36249
lowerback 31.4337 1.56397 -1.72629
upperback 6.10112 1.457 -0.152552
thorax -10.3635 0.736962 0.256022
lowerneck -1.23931 -0.667742 -4.6432
upperneck -2.43149 -0.760713 5.75512
head -0.507757 -0.370446 2.62778
rclavicle -3.97569e-015 9.34288e-015
rhumerus 6.18627 18.6151 -65.5888
rradius 147.31
rwrist -20.4434
rhand 19.6539 -53.889
rfingers 7.12502
rthumb 44.2125 -77.6922
lclavicle -3.97569e-015 9.34288e-015
lhumerus 7.30482 -30.1194 60.4228
lradius 142.783
lwrist 13.466
lhand -12.3092 -28.7281
lfingers 7.12502
lthumb 13.759 0.79699
rfemur -26.0949 -6.19781 16.3894
rtibia 16.2743
rfoot -20.0331 -13.0057
rtoes -12.5296
lfemur -42.7669 -4.38246 -10.6544
ltibia 34.7905
lfoot -14.0496 5.89819
ltoes -55.4655
534
root -0.262238 18.633 4.17546 20.8061 10.968 -2.3634
lowerback 31.4287 1.52896 -1.6812
upperback 6.10927 1.43226 -0.115923
thorax -10.3512 0.724884 0.28157
lowerneck -1.31305 -0.820697 -4.58091
upperneck -2.46638 -0.963002 5.73871
head -0.494876 -0.471495 2.61003
rclavicle -7.95139e-016 1.90833e-014
rhumerus 6.43357 18.273 -65.6134
rradius 147.249
rwrist -20.3222
rhand 21.7329 -53.3817
rfingers 7.12502
rthumb 46.1458 -76.4153
lclavicle -7.95139e-016 1.90833e-014
lhumerus 7.31697 -30.1926 60.2701
lradius 142.69
lwrist 14.015
lhand -11.5619 -29.0771
lfingers 7.12502
lthumb 14.4791 0.397717
rfemur -26.0374 -6.19548 16.3922
rtibia 16.1878
rfoot -20.0567 -13.0442
rtoes -12.3905
lfemur -42.7411 -4.44503 -10.6237
ltibia 34.7351
lfoot -14.0579 5.93279
ltoes -55.4625
535
root -0.260548 18.6346 4.17959 20.8292 11.0379 -2.37809
lowerback 31.4419 1.43596 -1.57043
upperback 6.08054 1.34929 -0.123167
thorax -10.3869 0.683897 0.240824
lowerneck -1.30742 -1.01753 -4.4312
upperneck -2.5378 -1.22525 5.79237
head -0.504161 -0.605049 2.60001
rclavicle -1.11319e-014 1.41137e-014
rhumerus 6.86401 17.9679 -65.7217
rradius 147.018
rwrist -20.0662
rhand 19.5304 -53.4602
rfingers 7.12502
rthumb 44.0974 -77.3067
lclavicle -1.11319e-014 1.41137e-014
lhumerus 7.12467 -30.5674 60.1035
lradius 142.576
lwrist 14.364
lhand -11.1311 -29.2157
lfingers 7.12502
lthumb 14.8942 0.228883
rfemur -25.9962 -6.2261 16.4133
rtibia 16.1041
rfoot -20.0859 -13.0386
rtoes -12.2137
lfemur -42.7475 -4.48074 -10.5949
ltibia 34.686
lfoot -14.0242 5.91373
ltoes -55.4802
536
root -0.25898 18.6362 4.18306 20.8655 11.0796 -2.37189
lowerback 31.443 1.35663 -1.45962
upperback 6.03827 1.27848 -0.170496
thorax -10.4318 0.64784 0.149568
lowerneck -1.2911 -1.24967 -4.4503
upperneck -2.61821 -1.52982 6.06593
head -0.513494 -0.759756 2.69523
rclavicle -2.46493e-014 2.72335e-014
rhumerus 7.33895 17.6704 -65.7842
rradius 146.753
rwrist -19.7362
rhand 14.8462 -52.9914
rfingers 7.12502
rthumb 39.7068 -78.3053
lclavicle -2.46493e-014 2.72335e-014
lhumerus 6.81351 -31.228 60.0461
lradius 142.476
lwrist 14.2366
lhand -10.9745 -29.4832
lfingers 7.12502
lthumb 15.0451 -0.0498468
rfemur -25.9638 -6.24315 16.4047
rtibia 15.997
rfoot -20.0811 -13.0688
rtoes -12.1646
lfemur -42.7623 -4.52948 -10.586
ltibia 34.6386
lfoot -13.9875 5.95581
ltoes -55.5331
537
root -0.256791 18.6388 4.18803 20.9251 11.0878 -2.34815
lowerback 31.3791 1.31517 -1.36396
upperback 6.01282 1.24971 -0.23381
thorax -10.4265 0.631029 0.0337318
lowerneck -1.28023 -1.45401 -4.42684
upperneck -2.72752 -1.79628 6.31106
head -0.53285 -0.895839 2.77351
rclavicle -4.37326e-015 -5.36719e-015
rhumerus 7.74144 17.4003 -65.6978
rradius 146.549
rwrist -19.5567
rhand 12.6623 -53.2505
rfingers 7.12502
rthumb 37.6468 -79.145
lclavicle -4.37326e-015 -5.36719e-015
lhumerus 6.5325 -31.8151 60.1452
lradius 142.358
lwrist 13.8234
lhand -10.8406 -30.0665
lfingers 7.12502
lthumb 15.1741 -0.64283
rfemur -25.9442 -6.25455 16.3755
rtibia 15.8675
rfoot -20.0494 -13.1426
rtoes -12.343
lfemur -42.7754 -4.61033 -10.5796
ltibia 34.5668
lfoot -13.9782 6.06175
ltoes -55.5275
538
root -0.256468 18.6425 4.19648 21.0412 10.9569 -2.37833
lowerback 31.1995 1.35669 -1.37432
upperback 6.00257 1.29594 -0.273868
thorax -10.3509 0.651578 -0.0209004
lowerneck -1.33659 -1.55176 -4.32315
upperneck -2.82469 -1.9214 6.37836
head -0.546759 -0.959798 2.7766
rclavicle -6.55989e-015 2.78299e-014
rhumerus 7.99787 17.3566 -65.4747
rradius 146.422
rwrist -19.5278
rhand 11.0724 -53.6701
rfingers 7.12502
rthumb 36.1428 -79.9514
lclavicle -6.55989e-015 2.78299e-014
lhumerus 6.41307 -31.9062 60.3404
lradius 142.316
lwrist 13.5707
lhand -10.7983 -30.2546
lfingers 7.12502
lthumb 15.2148 -0.834094
rfemur -25.9926 -6.16873 16.4038
rtibia 15.7014
rfoot -19.9776 -13.1765
rtoes -12.3775
lfemur -42.7914 -4.4533 -10.5779
ltibia 34.4642
lfoot -13.972 6.06
ltoes -55.5338
